HIERARCHY
ROOT ui
{
	 OFFSET 0 0 0
	 CHANNELS 3 XPosition YPosition Z Position
	 EndSite
	 {
	 OFFSET 0 -1 0
	 }
}
ROOT li
{
	 OFFSET 0 0 0
	 CHANNELS 3 XPosition YPosition Z Position
	 EndSite
	 {
	 OFFSET 0 -1 0
	 }
}
ROOT ul
{
	 OFFSET 0 0 0
	 CHANNELS 3 XPosition YPosition Z Position
	 EndSite
	 {
	 OFFSET 0 -1 0
	 }
}
ROOT ll
{
	 OFFSET 0 0 0
	 CHANNELS 3 XPosition YPosition Z Position
	 EndSite
	 {
	 OFFSET 0 -1 0
	 }
}
ROOT tt
{
	 OFFSET 0 0 0
	 CHANNELS 3 XPosition YPosition Z Position
	 EndSite
	 {
	 OFFSET 0 -1 0
	 }
}
ROOT tb
{
	 OFFSET 0 0 0
	 CHANNELS 3 XPosition YPosition Z Position
	 EndSite
	 {
	 OFFSET 0 -1 0
	 }
}
ROOT td
{
	 OFFSET 0 0 0
	 CHANNELS 3 XPosition YPosition Z Position
	 EndSite
	 {
	 OFFSET 0 -1 0
	 }
}
ROOT v
{
	 OFFSET 0 0 0
	 CHANNELS 3 XPosition YPosition Z Position
	 EndSite
	 {
	 OFFSET 0 -1 0
	 }
}
ROOT bn
{
	 OFFSET 0 0 0
	 CHANNELS 3 XPosition YPosition Z Position
	 EndSite
	 {
	 OFFSET 0 -1 0
	 }
}
MOTION
Frames: 13
Frame Time: 0.002
0.0013878500461578368	4.7444000840187074E-4	0		0.5092709655761719	-2.441148681640625	0		-0.944817138671875	0.117115478515625	0		-0.6551914672851562	-2.50298095703125	0		1.5873853759765626	-0.8606734619140625	0		3.264725341796875	-0.10542234802246093	0		4.6285556640625	0.0014190369844436646	0		5.653357421875	0.11882555389404297	0		-0.08492247009277344	5.94322607421875	0		
0.060794078826904296	0.009385793685913087	0		0.563585205078125	-2.443205078125	0		-0.8663755493164063	0.13089906311035157	0		-0.6588551025390625	-2.501623046875	0		1.5787880859375	-0.8512942504882812	0		3.257006103515625	-0.11405995941162109	0		4.62299951171875	0.015759719848632812	0		5.6566953125	0.11809596252441407	0		-0.09054868316650391	5.9425947265625	0		
-0.002793006896972656	0.006169858932495117	0		0.5280167846679688	-2.44261962890625	0		-0.9569896240234375	0.12387620544433593	0		-0.6664454956054687	-2.504229736328125	0		1.573217529296875	-0.8519231567382812	0		3.246487548828125	-0.10765987396240234	0		4.6123837890625	0.008156005859375	0		5.64212841796875	0.1175157699584961	0		-0.11117188262939454	5.93107763671875	0		
0.049809452056884765	0.008153393745422363	0		0.5485606689453125	-2.44841162109375	0		-0.8854085693359375	0.1227275390625	0		-0.6848234252929688	-2.49874658203125	0		1.564771240234375	-0.8565128173828125	0		3.246020751953125	-0.11530785369873046	0		4.606966796875	0.007541489124298095	0		5.64571142578125	0.11683644104003907	0		-0.11658147430419921	5.93046875	0		
-0.012484489440917968	-0.0030362579822540282	0		0.5413235473632813	-2.451987548828125	0		-0.8956547241210937	0.118171630859375	0		-0.60614697265625	-2.51492724609375	0		1.5595538330078125	-0.8571019897460938	0		3.240802978515625	-0.11589569091796875	0		4.60174853515625	0.0069545750617980955	0		5.6314931640625	0.11631375122070313	0		-0.12180426788330079	5.92987841796875	0		
0.040559791564941404	-0.0010127559900283813	0		0.5403899536132812	-2.44758349609375	0		-0.9566360473632812	0.1169934310913086	0		-0.6820504760742188	-2.505999755859375	0		1.563566650390625	-0.85972998046875	0		3.246729248046875	-0.13053277587890624	0		4.57571728515625	-0.0014547419548034668	0		5.6314541015625	0.10672521209716797	0		-0.10974009704589843	5.937189453125	0		
0.042914505004882815	0.005393039226531982	0		0.5137705078125	-2.438971923828125	0		-0.9522819213867187	0.12338064575195312	0		-0.682705322265625	-2.502575927734375	0		1.564918212890625	-0.8543101806640625	0		3.239211181640625	-0.10604264831542969	0		4.5750712890625	0.004991851806640625	0		5.629927734375	0.13018412780761718	0		-0.09938455200195312	5.9475380859375	0		
0.03551176071166992	0.0018956880569458007	0		0.5313402099609374	-2.448641357421875	0		-0.896630859375	0.12743517303466798	0		-0.6910995483398438	-2.50707080078125	0		1.5485421142578124	-0.854735107421875	0		3.226753173828125	-0.11748497009277344	0		4.58769482421875	0.005380950927734375	0		5.6174404296875	0.11475668334960938	0		-0.13593553161621094	5.92824365234375	0		
0.026492990493774415	0.005440311908721924	0		0.5252978515625	-2.451114013671875	0		-0.9046996459960938	0.12396593475341797	0		-0.6331220703125	-2.5070009765625	0		1.5414736328125	-0.85919287109375	0		3.22270703125	-0.11795120239257813	0		4.58364697265625	0.004923477172851563	0		5.613392578125	0.11430848693847656	0		-0.14002714538574218	5.927751953125	0		
0.018773740768432617	0.002007110118865967	0		0.4936353149414062	-2.449375	0		-0.9894249877929687	0.12006343078613281	0		-0.7137828979492188	-2.50492919921875	0		1.53778271484375	-0.8596410522460938	0		3.219009765625	-0.11838491821289063	0		4.579947265625	0.004499755859375	0		5.618693359375	0.11383241271972656	0		-0.14377655029296876	5.92728955078125	0		
0.020395790100097656	-0.0034597880840301514	0		0.49233651733398437	-2.446816650390625	0		-0.9837133178710937	0.12755873107910157	0		-0.7041373291015625	-2.510458984375	0		1.537475830078125	-0.856079833984375	0		3.20576611328125	-0.10471721649169922	0		4.55465234375	0.011262451171875	0		5.6104052734375	0.12148802185058594	0		-0.13209898376464843	5.93775048828125	0		
0.016465553283691405	0.004143894195556641	0		0.46340365600585937	-2.44303369140625	0		-0.9807357788085938	0.122103759765625	0		-0.7050841674804688	-2.50888330078125	0		1.537519287109375	-0.8534886474609376	0		3.21268310546875	-0.1191575698852539	0		4.5786640625	0.010714752197265625	0		5.61236181640625	0.11310668182373047	0		-0.150221435546875	5.92645068359375	0		
0.013832743644714356	0.0037692530155181885	0		0.5147466430664063	-2.450779541015625	0		-0.9833698120117188	0.1217185821533203	0		-0.7206483154296875	-2.50317529296875	0		1.531874755859375	-0.8568262329101562	0		3.20914208984375	-0.10649180603027343	0		4.5449814453125	0.003602294921875	0		5.60072802734375	0.11285382843017579	0		-0.15291677856445313	5.92607470703125	0		
